<?xml version="1.0" encoding="UTF-8" standalone="no"?>
<svg width="18px" height="23px" viewBox="0 0 18 23" version="1.1" xmlns="http://www.w3.org/2000/svg" xmlns:xlink="http://www.w3.org/1999/xlink" xmlns:sketch="http://www.bohemiancoding.com/sketch/ns">
    <!-- Generator: Sketch 3.3.2 (12043) - http://www.bohemiancoding.com/sketch -->
    <title>flask</title>
    <desc>Created with Sketch.</desc>
    <defs></defs>
    <g id="Elements" stroke="none" stroke-width="1" fill="none" fill-rule="evenodd" sketch:type="MSPage">
        <g id="1-0-0-V1---início" sketch:type="MSArtboardGroup" transform="translate(-225.000000, -633.000000)" fill="#C8CED6">
            <path d="M242.476203,650.8685 L238.079203,644.1275 C237.445203,643.1555 237.107203,642.0195 237.107203,640.8585 L237.107203,637.2405 C237.107203,636.4875 237.342203,635.6865 237.719203,635.0345 C238.010203,634.5335 237.648203,633.9055 237.069203,633.9055 L231.135203,633.9055 C230.556203,633.9055 230.194203,634.5335 230.485203,635.0345 C230.862203,635.6865 231.097203,636.4875 231.097203,637.2405 L231.097203,640.8585 C231.097203,642.0195 230.759203,643.1555 230.125203,644.1275 L225.728203,650.8685 C224.542203,652.6865 225.847203,655.0945 228.017203,655.0945 L240.187203,655.0945 C242.357203,655.0945 243.662203,652.6865 242.476203,650.8685 L242.476203,650.8685 Z M240.228203,653.8005 L227.976203,653.8005 C226.852203,653.8005 226.175203,652.5555 226.785203,651.6125 L231.183203,644.8085 C231.956203,643.6125 232.367203,642.2195 232.367203,640.7955 L232.367203,635.8925 C232.367203,635.5075 232.680203,635.1945 233.065203,635.1945 L235.117203,635.1945 C235.503203,635.1945 235.815203,635.5075 235.815203,635.8925 L235.815203,640.7625 C235.815203,642.1865 236.226203,643.5805 237.000203,644.7755 L241.419203,651.6125 C242.029203,652.5555 241.352203,653.8005 240.228203,653.8005 L240.228203,653.8005 Z M239.429203,652.5335 L228.769203,652.5335 C228.325203,652.5335 228.057203,652.0435 228.297203,651.6705 L231.125203,647.2645 C231.261203,647.0535 231.474203,646.9075 231.719203,646.8535 C232.020203,646.7875 232.350203,646.7405 232.690203,646.7405 C233.862203,646.7405 234.532203,647.1525 235.564203,647.1525 C236.216203,647.1525 236.183203,647.0985 236.510203,647.0585 C236.751203,647.0295 236.991203,647.1375 237.122203,647.3415 L239.901203,651.6705 C240.140203,652.0435 239.873203,652.5335 239.429203,652.5335 L239.429203,652.5335 Z" id="flask" sketch:type="MSShapeGroup"></path>
        </g>
    </g>
</svg>