<?xml version="1.0" encoding="UTF-8" standalone="no"?>
<svg width="23px" height="22px" viewBox="0 0 23 22" version="1.1" xmlns="http://www.w3.org/2000/svg" xmlns:xlink="http://www.w3.org/1999/xlink" xmlns:sketch="http://www.bohemiancoding.com/sketch/ns">
    <!-- Generator: Sketch 3.3.2 (12043) - http://www.bohemiancoding.com/sketch -->
    <title>multiplewindows</title>
    <desc>Created with Sketch.</desc>
    <defs></defs>
    <g id="Elements" stroke="none" stroke-width="1" fill="none" fill-rule="evenodd" sketch:type="MSPage">
        <g id="1-0-0-V1---início" sketch:type="MSArtboardGroup" transform="translate(-126.000000, -633.000000)" fill="#C8CED6">
            <path d="M126.279719,639.307767 L126.279719,653.692233 C126.279719,654.413927 126.879454,655 127.617972,655 L142.941465,655 C143.679983,655 144.279719,654.413927 144.279719,653.692233 L144.279719,639.307767 C144.279719,638.585105 143.679983,638 142.941465,638 L127.617972,638 C126.879454,638 126.279719,638.585105 126.279719,639.307767 L126.279719,639.307767 Z M141.654804,653 L128.904633,653 C128.559488,653 128.279719,652.732414 128.279719,652.402299 L128.279719,643.597701 C128.279719,643.267586 128.559488,643 128.904633,643 L141.654804,643 C141.999949,643 142.279719,643.267586 142.279719,643.597701 L142.279719,652.402299 C142.279719,652.732414 141.999949,653 141.654804,653 Z M147.378207,651.955 C147.879673,651.955 148.285719,651.533486 148.285719,651.014215 L148.285719,635.353038 C148.285719,634.581489 147.681726,633.955 146.935617,633.955 L131.194246,633.955 C130.691764,633.955 130.285719,634.376514 130.285719,634.895785 C130.285719,635.415056 130.691764,635.871258 131.194246,635.871258 L145.778387,635.871258 C146.149919,635.871258 146.451408,636.183451 146.451408,636.568174 L146.451408,651.014215 C146.451408,651.533486 146.875725,651.955 147.378207,651.955 Z" id="multiplewindows" sketch:type="MSShapeGroup"></path>
        </g>
    </g>
</svg>