<?xml version="1.0" encoding="UTF-8" standalone="no"?>
<svg width="24px" height="25px" viewBox="0 0 24 25" version="1.1" xmlns="http://www.w3.org/2000/svg" xmlns:xlink="http://www.w3.org/1999/xlink" xmlns:sketch="http://www.bohemiancoding.com/sketch/ns">
    <!-- Generator: Sketch 3.3.2 (12043) - http://www.bohemiancoding.com/sketch -->
    <title>pencil</title>
    <desc>Created with Sketch.</desc>
    <defs></defs>
    <g id="Elements" stroke="none" stroke-width="1" fill="none" fill-rule="evenodd" sketch:type="MSPage">
        <g id="1-0-0-V1---início" sketch:type="MSArtboardGroup" transform="translate(-35.000000, -632.000000)" fill="#C8CED6">
            <path d="M58.2987814,637.54775 L56.1767814,639.66975 C55.9267814,639.91975 55.5207814,639.91975 55.2707814,639.66975 L51.6787814,636.07675 C51.4287814,635.82575 51.4287814,635.42175 51.6787814,635.17175 L53.8007814,633.04975 C54.3627814,632.48675 55.2737814,632.48675 55.8367814,633.04975 L58.2987814,635.51075 C58.8607814,636.07275 58.8607814,636.98475 58.2987814,637.54775 L58.2987814,637.54775 Z M50.9087814,636.84575 C50.6587814,636.59575 50.2537814,636.59575 50.0037814,636.84575 L38.2537814,648.59575 C38.0037814,648.84575 38.0027814,649.25075 38.2537814,649.50175 L41.8467814,653.09475 C42.0967814,653.34475 42.5017814,653.34475 42.7517814,653.09475 L54.5017814,641.34475 C54.7517814,641.09475 54.7517814,640.68875 54.5017814,640.43875 L50.9087814,636.84575 L50.9087814,636.84575 Z M37.5727814,650.35975 C37.3857814,650.17275 37.0817814,650.17275 36.8937814,650.35975 C36.7567814,650.49675 35.0517814,655.60075 34.9877814,655.78375 C34.9077814,656.13075 35.2167814,656.43975 35.5637814,656.35975 C35.7467814,656.29675 40.8507814,654.59075 40.9877814,654.45375 C41.1757814,654.26575 41.1757814,653.96275 40.9877814,653.77475 L37.5727814,650.35975 L37.5727814,650.35975 Z" id="pencil" sketch:type="MSShapeGroup"></path>
        </g>
    </g>
</svg>