<?xml version="1.0" encoding="UTF-8" standalone="no"?>
<svg width="16px" height="17px" viewBox="0 0 16 17" version="1.1" xmlns="http://www.w3.org/2000/svg" xmlns:xlink="http://www.w3.org/1999/xlink" xmlns:sketch="http://www.bohemiancoding.com/sketch/ns">
    <!-- Generator: Sketch 3.3.2 (12043) - http://www.bohemiancoding.com/sketch -->
    <title>returnright</title>
    <desc>Created with Sketch.</desc>
    <defs></defs>
    <g id="Elements" stroke="none" stroke-width="1" fill="none" fill-rule="evenodd" sketch:type="MSPage">
        <g id="1-0-0-V1---início" sketch:type="MSArtboardGroup" transform="translate(-320.000000, -636.000000)" fill="#C8CED6">
            <path d="M334.256591,639.340992 L327.378145,639.346821 C327.02993,639.347792 326.748272,639.063184 326.748272,638.712523 L326.748272,637.023329 C326.748272,636.580389 326.235113,636.33852 325.897509,636.622157 L320.904824,640.813574 C320.568184,641.096239 320.568184,641.616888 320.904824,641.899553 L325.897509,646.09097 C326.235113,646.374607 326.748272,646.132738 326.748272,645.689798 L326.748272,644.01226 C326.748272,643.662571 327.02993,643.378934 327.37718,643.378934 L331.022342,643.378934 C331.369592,643.378934 331.651251,643.662571 331.651251,644.01226 L331.651251,647.837474 C331.651251,648.188135 331.369592,648.471772 331.022342,648.471772 L322.612137,648.471772 C322.21087,648.471772 321.885805,648.79912 321.885805,649.203206 L321.885805,651.768566 C321.885805,652.172652 322.21087,652.5 322.612137,652.5 L334.257556,652.5 C335.028258,652.5 335.652344,651.87153 335.652344,651.096385 L335.652344,640.744607 C335.652344,639.968491 335.027294,639.340021 334.256591,639.340992" id="returnright" sketch:type="MSShapeGroup"></path>
        </g>
    </g>
</svg>